<?xml version="1.0" encoding="UTF-8"?>
<svg width="615px" height="286px" viewBox="0 0 615 286" version="1.1" xmlns="http://www.w3.org/2000/svg" xmlns:xlink="http://www.w3.org/1999/xlink">
    <!-- Generator: Sketch 52.3 (67297) - http://www.bohemiancoding.com/sketch -->
    <title>Group 2</title>
    <desc>Created with Sketch.</desc>
    <g id="Prickly-Pints" stroke="none" stroke-width="1" fill="none" fill-rule="evenodd">
        <g id="Artboard4-Copy" transform="translate(-209.000000, -236.000000)">
            <g id="Group-2" transform="translate(209.000000, 236.000000)">
                <text id="pints" font-family="OpenSans, Open Sans" font-size="50" font-weight="normal" letter-spacing="5.5999999" fill="#504F4C">
                    <tspan x="210" y="285">PINTS</tspan>
                </text>
                <text id="pints" font-family="OpenSans, Open Sans" font-size="50" font-weight="normal" letter-spacing="5.5999999" fill="#FFFFFF">
                    <tspan x="210" y="285">PINTS</tspan>
                </text>
                <path d="M201.5,269 L151.5,269" id="Line" stroke="#FFFFFF" stroke-width="3" stroke-linecap="square"></path>
                <path d="M430.5,268 L380.5,268" id="Line" stroke="#FFFFFF" stroke-width="3" stroke-linecap="square"></path>
                <g id="noun_Agave_48291" transform="translate(206.000000, 0.000000)" fill="#FFFFFF">
                    <g id="Group">
                        <polygon id="Path" points="354.522628 63.0898947 385.958287 10.5292316 384.828213 43.7755158"></polygon>
                        <polygon id="Path" points="351.298809 62.9046 341.064947 55.2743053 355.746436 0.515842105 365.065074 38.5120421"></polygon>
                        <polygon id="Path" points="337.92433 52.9775053 332.012766 48.6069158 327.22917 13.9266947 343.040734 34.5999789"></polygon>
                        <polygon id="Path" transform="translate(20.351500, 91.064520) rotate(53.000000) translate(-20.351500, -91.064520) " points="23.140878 110.589926 17.2293141 106.219336 12.4457184 71.5391151 28.2572822 92.2123993"></polygon>
                        <polygon id="Path" points="351.134511 67.7097474 308.311745 35.9964 329.976947 82.1262316"></polygon>
                        <path d="M363.155145,62.3092809 L363.163907,62.3223751 L330.218926,84.924107 C332.797133,89.1033487 340.008229,98.0183368 354.619898,98.0183368 C373.703454,98.0183368 379.577255,82.8061153 379.577255,82.8061153 L408.350447,31.3206947 L363.155145,62.3092809 Z" id="Path"></path>
                    </g>
                </g>
                <path d="M102.8,152 C102.8,159.466704 101.500013,166.399968 98.9,172.8 C96.299987,179.200032 92.600024,184.699977 87.8,189.3 C82.999976,193.900023 77.133368,197.499987 70.2,200.1 C63.266632,202.700013 55.46671,204 46.8,204 C44.399988,204 42.033345,203.933334 39.7,203.8 C37.366655,203.666666 34.933346,203.333336 32.4,202.8 C32.4,204.666676 32.433333,207.399982 32.5,211 C32.566667,214.600018 32.633333,218.39998 32.7,222.4 C32.766667,226.40002 32.8,230.333314 32.8,234.2 L32.8,243.6 C33.066668,244.800006 33.799994,245.699997 35,246.3 C36.200006,246.900003 37.633325,247.366665 39.3,247.7 C40.966675,248.033335 42.699991,248.266666 44.5,248.4 C46.300009,248.533334 47.86666,248.666666 49.2,248.8 L49.2,251 L0,251 L0,248.8 C1.33334,248.666666 2.933324,248.433335 4.8,248.1 C6.666676,247.766665 8.433325,247.333336 10.1,246.8 C11.766675,246.266664 13.166661,245.600004 14.3,244.8 C15.433339,243.999996 16,243.066672 16,242 L16,131.2 C16,130.133328 15.900001,129.333336 15.7,128.8 C15.499999,128.266664 14.933338,127.66667 14,127 C12.799994,126.33333 10.86668,125.366673 8.2,124.1 C5.53332,122.833327 3.400008,121.86667 1.8,121.2 L1.8,120 L31.2,108.4 L32.4,108.4 L32.4,130.8 L32.6,131.2 C34.466676,128.666654 36.533322,126.06668 38.8,123.4 C41.066678,120.73332 43.599986,118.300011 46.4,116.1 C49.200014,113.899989 52.233317,112.066674 55.5,110.6 C58.766683,109.133326 62.333314,108.4 66.2,108.4 C72.466698,108.4 77.899977,109.666654 82.5,112.2 C87.100023,114.733346 90.899985,118.066646 93.9,122.2 C96.900015,126.333354 99.133326,130.999974 100.6,136.2 C102.066674,141.400026 102.8,146.66664 102.8,152 Z M84.8,157.8 C84.8,152.733308 84.200006,148.000022 83,143.6 C81.799994,139.199978 79.966679,135.366683 77.5,132.1 C75.033321,128.833317 71.900019,126.233343 68.1,124.3 C64.299981,122.366657 59.866692,121.4 54.8,121.4 C51.333316,121.4 48.233347,122.033327 45.5,123.3 C42.766653,124.566673 40.433343,126.033325 38.5,127.7 C36.566657,129.366675 35.100005,131.066658 34.1,132.8 C33.099995,134.533342 32.6,135.799996 32.6,136.6 C32.6,139.26668 32.566667,142.099985 32.5,145.1 C32.433333,148.100015 32.4,150.733322 32.4,153 L32.4,165.8 C32.4,168.866682 32.466666,171.933318 32.6,175 C32.866668,177.800014 33.33333,180.699985 34,183.7 C34.66667,186.700015 35.799992,189.433321 37.4,191.9 C39.000008,194.366679 41.199986,196.366659 44,197.9 C46.800014,199.433341 50.399978,200.2 54.8,200.2 C58.666686,200.2 62.399982,199.133344 66,197 C69.600018,194.866656 72.799986,191.933352 75.6,188.2 C78.400014,184.466648 80.633325,180.000026 82.3,174.8 C83.966675,169.599974 84.8,163.933364 84.8,157.8 Z M189.033331,119 C189.033331,121.933348 188.166673,124.366657 186.433331,126.3 C184.699989,128.233343 182.700009,129.2 180.433331,129.2 C178.299987,129.2 176.600004,128.833337 175.333331,128.1 C174.066658,127.366663 172.966669,126.533338 172.033331,125.6 C171.099993,124.666662 170.100003,123.833337 169.033331,123.1 C167.966659,122.366663 166.500007,122 164.633331,122 C163.033323,122 161.466672,122.566661 159.933331,123.7 C158.39999,124.833339 156.966671,126.266658 155.633331,128 C154.299991,129.733342 153.100003,131.699989 152.033331,133.9 C150.966659,136.100011 150.033335,138.19999 149.233331,140.2 L149.233331,197.8 C149.633333,199.000006 150.499991,199.93333 151.833331,200.6 C153.166671,201.26667 154.666656,201.733332 156.333331,202 C158.000006,202.266668 159.733322,202.433333 161.533331,202.5 C163.33334,202.566667 164.899991,202.733332 166.233331,203 L166.233331,205 L121.433331,205 L121.433331,203 C124.500013,202.733332 127.13332,202.133338 129.333331,201.2 C131.533342,200.266662 132.633331,198.733344 132.633331,196.6 L132.633331,129 C132.633331,127.933328 132.533332,127.133336 132.333331,126.6 C132.13333,126.066664 131.566669,125.46667 130.633331,124.8 C129.433325,124.13333 128.033339,123.300005 126.433331,122.3 C124.833323,121.299995 123.233339,120.46667 121.633331,119.8 L121.633331,118.6 L147.833331,108.4 L149.033331,108.4 L148.633331,136.2 L149.033331,136.2 C149.700001,134.599992 150.766657,132.266682 152.233331,129.2 C153.700005,126.133318 155.566653,123.033349 157.833331,119.9 C160.100009,116.766651 162.833315,114.066678 166.033331,111.8 C169.233347,109.533322 172.899977,108.4 177.033331,108.4 C180.366681,108.4 183.199986,109.39999 185.533331,111.4 C187.866676,113.40001 189.033331,115.933318 189.033331,119 Z M242.466662,205 L199.466662,205 L199.466662,203 C201.06667,202.866666 202.666654,202.700001 204.266662,202.5 C205.86667,202.299999 207.299989,201.966669 208.566662,201.5 C209.833335,201.033331 210.899991,200.400004 211.766662,199.6 C212.633333,198.799996 213.066662,197.800006 213.066662,196.6 L213.066662,128 C213.066662,126.933328 212.966663,126.000004 212.766662,125.2 C212.566661,124.399996 212,123.66667 211.066662,123 C209.866656,122.199996 208.433337,121.400004 206.766662,120.6 C205.099987,119.799996 203.333338,119.06667 201.466662,118.4 L201.466662,117.2 L228.466662,108.4 L229.666662,108.4 L229.666662,197.8 C229.93333,199.13334 230.499991,200.099997 231.366662,200.7 C232.233333,201.300003 233.266656,201.733332 234.466662,202 C235.666668,202.266668 236.966655,202.433333 238.366662,202.5 C239.766669,202.566667 241.133322,202.733332 242.466662,203 L242.466662,205 Z M343.699993,176.4 C342.499987,180.40002 340.700005,184.166649 338.299993,187.7 C335.899981,191.233351 332.966677,194.366653 329.499993,197.1 C326.033309,199.833347 322.133348,201.933326 317.799993,203.4 C313.466638,204.866674 308.766685,205.6 303.699993,205.6 C297.299961,205.6 291.366687,204.366679 285.899993,201.9 C280.433299,199.433321 275.766679,195.966689 271.899993,191.5 C268.033307,187.033311 265.000004,181.80003 262.799993,175.8 C260.599982,169.79997 259.499993,163.400034 259.499993,156.6 C259.499993,150.199968 260.633315,144.100029 262.899993,138.3 C265.166671,132.499971 268.299973,127.400022 272.299993,123 C276.300013,118.599978 281.066632,115.06668 286.599993,112.4 C292.133354,109.73332 298.166627,108.4 304.699993,108.4 C309.100015,108.4 313.433305,108.933328 317.699993,110 C321.966681,111.066672 325.766643,112.59999 329.099993,114.6 C332.433343,116.60001 335.133316,119.066652 337.199993,122 C339.26667,124.933348 340.299993,128.333314 340.299993,132.2 C340.299993,135.000014 339.26667,137.433323 337.199993,139.5 C335.133316,141.566677 332.700007,142.6 329.899993,142.6 C327.633315,142.6 325.600002,141.93334 323.799993,140.6 C321.999984,139.26666 320.833329,137.60001 320.299993,135.6 C320.966663,133.733324 321.299993,131.46668 321.299993,128.8 C321.299993,123.866642 320.000006,119.766683 317.399993,116.5 C314.79998,113.233317 310.700021,111.6 305.099993,111.6 C300.966639,111.6 297.166677,112.666656 293.699993,114.8 C290.233309,116.933344 287.233339,119.799982 284.699993,123.4 C282.166647,127.000018 280.166667,131.199976 278.699993,136 C277.233319,140.800024 276.499993,145.933306 276.499993,151.4 C276.499993,157.40003 277.299985,162.899975 278.899993,167.9 C280.500001,172.900025 282.766645,177.166649 285.699993,180.7 C288.633341,184.233351 292.199972,186.966657 296.399993,188.9 C300.600014,190.833343 305.299967,191.8 310.499993,191.8 C318.766701,191.8 325.299969,190.433347 330.099993,187.7 C334.900017,184.966653 338.899977,180.93336 342.099993,175.6 L343.699993,176.4 Z M456.333324,205 L407.933324,205 L407.933324,203 C410.600004,202.866666 412.833315,202.600002 414.633324,202.2 C416.433333,201.799998 417.333324,200.666676 417.333324,198.8 C417.333324,197.999996 416.433333,196.166681 414.633324,193.3 C412.833315,190.433319 410.700003,187.133352 408.233324,183.4 C405.766645,179.666648 403.166671,175.833353 400.433324,171.9 C397.699977,167.966647 395.333334,164.66668 393.333324,162 C391.19998,159.066652 389.266666,157.6 387.533324,157.6 C386.866654,157.6 386.299993,157.633333 385.833324,157.7 C385.366655,157.766667 384.86666,157.933332 384.333324,158.2 L384.333324,197.4 C384.333324,198.600006 384.666654,199.53333 385.333324,200.2 C385.999994,200.86667 386.866652,201.366665 387.933324,201.7 C388.999996,202.033335 390.199984,202.266666 391.533324,202.4 C392.866664,202.533334 394.199984,202.733332 395.533324,203 L395.533324,205 L355.733324,205 L355.733324,203 C358.800006,202.733332 361.566645,202.233337 364.033324,201.5 C366.500003,200.766663 367.733324,199.133346 367.733324,196.6 L367.733324,83.6 C367.733324,82.533328 367.666658,81.700003 367.533324,81.1 C367.39999,80.499997 366.866662,79.86667 365.933324,79.2 C364.999986,78.53333 363.566667,77.700005 361.633324,76.7 C359.699981,75.699995 357.866666,74.733338 356.133324,73.8 L356.133324,72.6 L382.733324,60.4 L384.333324,60.4 L384.333324,156 C388.20001,152.799984 392.399968,149.166687 396.933324,145.1 C401.46668,141.033313 405.666638,137.100019 409.533324,133.3 C413.40001,129.499981 416.599978,126.166681 419.133324,123.3 C421.66667,120.433319 422.933324,118.533338 422.933324,117.6 C422.933324,116.666662 422.399996,115.900003 421.333324,115.3 C420.266652,114.699997 418.933332,114.200002 417.333324,113.8 C415.733316,113.399998 414,113.066668 412.133324,112.8 C410.266648,112.533332 408.533332,112.4 406.933324,112.4 L406.933324,110.4 L455.933324,110.4 L455.933324,112.4 C455.533322,112.4 454.266668,112.499999 452.133324,112.7 C449.99998,112.900001 447.500005,113.366663 444.633324,114.1 C441.766643,114.833337 438.700007,115.86666 435.433324,117.2 C432.166641,118.53334 429.133338,120.399988 426.333324,122.8 C422.066636,126.400018 417.866678,130.099981 413.733324,133.9 C409.59997,137.700019 405.733342,141.26665 402.133324,144.6 C408.00002,153.533378 413.533298,161.899961 418.733324,169.7 C423.93335,177.500039 428.466638,183.933308 432.333324,189 C437.000014,195.133364 440.933308,199.399988 444.133324,201.8 C445.199996,202.066668 446.866646,202.333332 449.133324,202.6 C451.400002,202.866668 453.799978,203 456.333324,203 L456.333324,205 Z M505.166656,205 L458.566656,205 L458.566656,202.8 C464.70002,202.399998 468.766646,201.766671 470.766656,200.9 C472.766666,200.033329 473.766656,198.533344 473.766656,196.4 L473.766656,81.4 C473.766656,80.333328 473.666657,79.533336 473.466656,79 C473.266655,78.466664 472.699994,77.86667 471.766656,77.2 C470.56665,76.53333 468.766668,75.500007 466.366656,74.1 C463.966644,72.699993 461.966664,71.66667 460.366656,71 L460.366656,69.8 L488.966656,60.4 L490.366656,60.4 L490.366656,197.4 C490.366656,198.73334 490.666653,199.73333 491.266656,200.4 C491.866659,201.06667 492.76665,201.533332 493.966656,201.8 C495.166662,202.066668 496.69998,202.233333 498.566656,202.3 C500.433332,202.366667 502.63331,202.533332 505.166656,202.8 L505.166656,205 Z M603.799987,112.6 C602.199979,112.733334 600.633328,112.866666 599.099987,113 C597.566646,113.133334 596.099994,113.466664 594.699987,114 C593.29998,114.533336 592.066659,115.366661 590.999987,116.5 C589.933315,117.633339 589.066657,119.266656 588.399987,121.4 C587.733317,123.533344 586.666661,126.93331 585.199987,131.6 C583.733313,136.26669 581.999997,141.766635 579.999987,148.1 C577.999977,154.433365 575.799999,161.399962 573.399987,169 C570.999975,176.600038 568.566666,184.39996 566.099987,192.4 C563.633308,200.40004 561.166666,208.333294 558.699987,216.2 C556.233308,224.066706 553.866665,231.533298 551.599987,238.6 C549.999979,243.666692 547.733335,247.333322 544.799987,249.6 C541.866639,251.866678 538.866669,253 535.799987,253 C533.133307,253 530.666665,252.166675 528.399987,250.5 C526.133309,248.833325 524.999987,246.66668 524.999987,244 C524.999987,241.33332 525.799979,239.133342 527.399987,237.4 C528.999995,235.666658 531.133307,234.8 533.799987,234.8 C536.466667,234.8 538.699978,235.599992 540.499987,237.2 C542.299996,238.800008 544.133311,240.466658 545.999987,242.2 L546.399987,242.2 C547.866661,238.599982 549.166648,235.033351 550.299987,231.5 C551.433326,227.966649 552.433316,224.766681 553.299987,221.9 C554.166658,219.033319 554.866651,216.60001 555.399987,214.6 C555.933323,212.59999 556.266653,211.26667 556.399987,210.6 C556.133319,210.066664 555.399993,208.166683 554.199987,204.9 C552.999981,201.633317 551.466663,197.433359 549.599987,192.3 C547.733311,187.166641 545.599999,181.400032 543.199987,175 C540.799975,168.599968 538.366666,162.033367 535.899987,155.3 C533.433308,148.566633 530.999999,141.933366 528.599987,135.4 C526.199975,128.866634 523.999997,122.866694 521.999987,117.4 C520.799981,116.06666 519.366662,115.000004 517.699987,114.2 C516.033312,113.399996 512.933343,112.866668 508.399987,112.6 L508.399987,110.4 L551.999987,110.4 L551.999987,112.6 C549.199973,113.000002 546.766664,113.53333 544.699987,114.2 C542.63331,114.86667 541.599987,116.466654 541.599987,119 C541.599987,119.66667 541.999983,121.299987 542.799987,123.9 C543.599991,126.500013 544.666647,129.733314 545.999987,133.6 C547.333327,137.466686 548.833312,141.699977 550.499987,146.3 C552.166662,150.900023 553.833312,155.53331 555.499987,160.2 C557.166662,164.86669 558.799979,169.366645 560.399987,173.7 C561.999995,178.033355 563.399981,181.799984 564.599987,185 C564.999989,183.933328 565.733315,181.666684 566.799987,178.2 C567.866659,174.733316 569.133313,170.633357 570.599987,165.9 C572.066661,161.166643 573.599979,156.200026 575.199987,151 C576.799995,145.799974 578.266647,140.900023 579.599987,136.3 C580.933327,131.699977 582.033316,127.766683 582.899987,124.5 C583.766658,121.233317 584.199987,119.200004 584.199987,118.4 C584.199987,117.199994 583.866657,116.233337 583.199987,115.5 C582.533317,114.766663 581.633326,114.200002 580.499987,113.8 C579.366648,113.399998 578.133327,113.133334 576.799987,113 C575.466647,112.866666 574.199993,112.733334 572.999987,112.6 L572.999987,110.4 L603.799987,110.4 L603.799987,112.6 Z" id="prickly" fill="#FFFFFF"></path>
            </g>
        </g>
    </g>
</svg>