<?xml version="1.0" encoding="UTF-8"?>
<svg width="609px" height="277px" viewBox="0 0 609 277" version="1.1" xmlns="http://www.w3.org/2000/svg" xmlns:xlink="http://www.w3.org/1999/xlink">
    <!-- Generator: Sketch 52.3 (67297) - http://www.bohemiancoding.com/sketch -->
    <title>Group 2</title>
    <desc>Created with Sketch.</desc>
    <g id="Prickly-Pints" stroke="none" stroke-width="1" fill="none" fill-rule="evenodd">
        <g id="Artboard4-Copy" transform="translate(-209.000000, -245.000000)">
            <g id="Group-2" transform="translate(209.000000, 245.000000)">
                <text id="pints" font-family="OpenSans, Open Sans" font-size="50" font-weight="normal" letter-spacing="5.5999999" fill="#504F4C">
                    <tspan x="210" y="276">PINTS</tspan>
                </text>
                <text id="pints" font-family="OpenSans, Open Sans" font-size="50" font-weight="normal" letter-spacing="5.5999999" fill="#FFFFFF">
                    <tspan x="210" y="276">PINTS</tspan>
                </text>
                <path d="M201.5,260 L151.5,260" id="Line" stroke="#FFFFFF" stroke-width="3" stroke-linecap="square"></path>
                <path d="M428.5,259 L378.5,259" id="Line" stroke="#FFFFFF" stroke-width="3" stroke-linecap="square"></path>
                <g id="noun_Agave_48291" transform="translate(204.000000, 0.000000)" fill="#FFFFFF">
                    <g id="Group" transform="translate(312.000000, 0.000000)">
                        <polygon id="Path" points="42 58 71 10 69.9574846 40.3615203"></polygon>
                        <polygon id="Path" points="39.38099 57 30 50.0287633 43.4579603 0 52 34.7143215"></polygon>
                        <polygon id="Path" points="27.4697928 48 22.2355292 43.970859 18 12 32 31.0582019"></polygon>
                        <polygon id="Path" points="39 60.8741698 0 32 19.7311608 74"></polygon>
                        <path d="M51.9299382,56.341388 L51.9379004,56.3533637 L22,77.024344 C24.3428796,80.8465742 30.8957764,89 44.1737528,89 C61.5154408,89 66.8531057,75.0872816 66.8531057,75.0872816 L93,28 L51.9299382,56.341388 Z" id="Path"></path>
                    </g>
                    <polygon id="Path" transform="translate(20.351500, 81.064520) rotate(53.000000) translate(-20.351500, -81.064520) " points="23.140878 100.589926 17.2293141 96.2193362 12.4457184 61.5391151 28.2572822 82.2123993"></polygon>
                </g>
                <path d="M102.8,143 C102.8,150.466704 101.500013,157.399968 98.9,163.8 C96.299987,170.200032 92.600024,175.699977 87.8,180.3 C82.999976,184.900023 77.133368,188.499987 70.2,191.1 C63.266632,193.700013 55.46671,195 46.8,195 C44.399988,195 42.033345,194.933334 39.7,194.8 C37.366655,194.666666 34.933346,194.333336 32.4,193.8 C32.4,195.666676 32.433333,198.399982 32.5,202 C32.566667,205.600018 32.633333,209.39998 32.7,213.4 C32.766667,217.40002 32.8,221.333314 32.8,225.2 L32.8,234.6 C33.066668,235.800006 33.799994,236.699997 35,237.3 C36.200006,237.900003 37.633325,238.366665 39.3,238.7 C40.966675,239.033335 42.699991,239.266666 44.5,239.4 C46.300009,239.533334 47.86666,239.666666 49.2,239.8 L49.2,242 L0,242 L0,239.8 C1.33334,239.666666 2.933324,239.433335 4.8,239.1 C6.666676,238.766665 8.433325,238.333336 10.1,237.8 C11.766675,237.266664 13.166661,236.600004 14.3,235.8 C15.433339,234.999996 16,234.066672 16,233 L16,122.2 C16,121.133328 15.900001,120.333336 15.7,119.8 C15.499999,119.266664 14.933338,118.66667 14,118 C12.799994,117.33333 10.86668,116.366673 8.2,115.1 C5.53332,113.833327 3.400008,112.86667 1.8,112.2 L1.8,111 L31.2,99.4 L32.4,99.4 L32.4,121.8 L32.6,122.2 C34.466676,119.666654 36.533322,117.06668 38.8,114.4 C41.066678,111.73332 43.599986,109.300011 46.4,107.1 C49.200014,104.899989 52.233317,103.066674 55.5,101.6 C58.766683,100.133326 62.333314,99.4 66.2,99.4 C72.466698,99.4 77.899977,100.666654 82.5,103.2 C87.100023,105.733346 90.899985,109.066646 93.9,113.2 C96.900015,117.333354 99.133326,121.999974 100.6,127.2 C102.066674,132.400026 102.8,137.66664 102.8,143 Z M84.8,148.8 C84.8,143.733308 84.200006,139.000022 83,134.6 C81.799994,130.199978 79.966679,126.366683 77.5,123.1 C75.033321,119.833317 71.900019,117.233343 68.1,115.3 C64.299981,113.366657 59.866692,112.4 54.8,112.4 C51.333316,112.4 48.233347,113.033327 45.5,114.3 C42.766653,115.566673 40.433343,117.033325 38.5,118.7 C36.566657,120.366675 35.100005,122.066658 34.1,123.8 C33.099995,125.533342 32.6,126.799996 32.6,127.6 C32.6,130.26668 32.566667,133.099985 32.5,136.1 C32.433333,139.100015 32.4,141.733322 32.4,144 L32.4,156.8 C32.4,159.866682 32.466666,162.933318 32.6,166 C32.866668,168.800014 33.33333,171.699985 34,174.7 C34.66667,177.700015 35.799992,180.433321 37.4,182.9 C39.000008,185.366679 41.199986,187.366659 44,188.9 C46.800014,190.433341 50.399978,191.2 54.8,191.2 C58.666686,191.2 62.399982,190.133344 66,188 C69.600018,185.866656 72.799986,182.933352 75.6,179.2 C78.400014,175.466648 80.633325,171.000026 82.3,165.8 C83.966675,160.599974 84.8,154.933364 84.8,148.8 Z M189.033331,110 C189.033331,112.933348 188.166673,115.366657 186.433331,117.3 C184.699989,119.233343 182.700009,120.2 180.433331,120.2 C178.299987,120.2 176.600004,119.833337 175.333331,119.1 C174.066658,118.366663 172.966669,117.533338 172.033331,116.6 C171.099993,115.666662 170.100003,114.833337 169.033331,114.1 C167.966659,113.366663 166.500007,113 164.633331,113 C163.033323,113 161.466672,113.566661 159.933331,114.7 C158.39999,115.833339 156.966671,117.266658 155.633331,119 C154.299991,120.733342 153.100003,122.699989 152.033331,124.9 C150.966659,127.100011 150.033335,129.19999 149.233331,131.2 L149.233331,188.8 C149.633333,190.000006 150.499991,190.93333 151.833331,191.6 C153.166671,192.26667 154.666656,192.733332 156.333331,193 C158.000006,193.266668 159.733322,193.433333 161.533331,193.5 C163.33334,193.566667 164.899991,193.733332 166.233331,194 L166.233331,196 L121.433331,196 L121.433331,194 C124.500013,193.733332 127.13332,193.133338 129.333331,192.2 C131.533342,191.266662 132.633331,189.733344 132.633331,187.6 L132.633331,120 C132.633331,118.933328 132.533332,118.133336 132.333331,117.6 C132.13333,117.066664 131.566669,116.46667 130.633331,115.8 C129.433325,115.13333 128.033339,114.300005 126.433331,113.3 C124.833323,112.299995 123.233339,111.46667 121.633331,110.8 L121.633331,109.6 L147.833331,99.4 L149.033331,99.4 L148.633331,127.2 L149.033331,127.2 C149.700001,125.599992 150.766657,123.266682 152.233331,120.2 C153.700005,117.133318 155.566653,114.033349 157.833331,110.9 C160.100009,107.766651 162.833315,105.066678 166.033331,102.8 C169.233347,100.533322 172.899977,99.4 177.033331,99.4 C180.366681,99.4 183.199986,100.39999 185.533331,102.4 C187.866676,104.40001 189.033331,106.933318 189.033331,110 Z M242.466662,196 L199.466662,196 L199.466662,194 C201.06667,193.866666 202.666654,193.700001 204.266662,193.5 C205.86667,193.299999 207.299989,192.966669 208.566662,192.5 C209.833335,192.033331 210.899991,191.400004 211.766662,190.6 C212.633333,189.799996 213.066662,188.800006 213.066662,187.6 L213.066662,119 C213.066662,117.933328 212.966663,117.000004 212.766662,116.2 C212.566661,115.399996 212,114.66667 211.066662,114 C209.866656,113.199996 208.433337,112.400004 206.766662,111.6 C205.099987,110.799996 203.333338,110.06667 201.466662,109.4 L201.466662,108.2 L228.466662,99.4 L229.666662,99.4 L229.666662,188.8 C229.93333,190.13334 230.499991,191.099997 231.366662,191.7 C232.233333,192.300003 233.266656,192.733332 234.466662,193 C235.666668,193.266668 236.966655,193.433333 238.366662,193.5 C239.766669,193.566667 241.133322,193.733332 242.466662,194 L242.466662,196 Z M343.699993,167.4 C342.499987,171.40002 340.700005,175.166649 338.299993,178.7 C335.899981,182.233351 332.966677,185.366653 329.499993,188.1 C326.033309,190.833347 322.133348,192.933326 317.799993,194.4 C313.466638,195.866674 308.766685,196.6 303.699993,196.6 C297.299961,196.6 291.366687,195.366679 285.899993,192.9 C280.433299,190.433321 275.766679,186.966689 271.899993,182.5 C268.033307,178.033311 265.000004,172.80003 262.799993,166.8 C260.599982,160.79997 259.499993,154.400034 259.499993,147.6 C259.499993,141.199968 260.633315,135.100029 262.899993,129.3 C265.166671,123.499971 268.299973,118.400022 272.299993,114 C276.300013,109.599978 281.066632,106.06668 286.599993,103.4 C292.133354,100.73332 298.166627,99.4 304.699993,99.4 C309.100015,99.4 313.433305,99.933328 317.699993,101 C321.966681,102.066672 325.766643,103.59999 329.099993,105.6 C332.433343,107.60001 335.133316,110.066652 337.199993,113 C339.26667,115.933348 340.299993,119.333314 340.299993,123.2 C340.299993,126.000014 339.26667,128.433323 337.199993,130.5 C335.133316,132.566677 332.700007,133.6 329.899993,133.6 C327.633315,133.6 325.600002,132.93334 323.799993,131.6 C321.999984,130.26666 320.833329,128.60001 320.299993,126.6 C320.966663,124.733324 321.299993,122.46668 321.299993,119.8 C321.299993,114.866642 320.000006,110.766683 317.399993,107.5 C314.79998,104.233317 310.700021,102.6 305.099993,102.6 C300.966639,102.6 297.166677,103.666656 293.699993,105.8 C290.233309,107.933344 287.233339,110.799982 284.699993,114.4 C282.166647,118.000018 280.166667,122.199976 278.699993,127 C277.233319,131.800024 276.499993,136.933306 276.499993,142.4 C276.499993,148.40003 277.299985,153.899975 278.899993,158.9 C280.500001,163.900025 282.766645,168.166649 285.699993,171.7 C288.633341,175.233351 292.199972,177.966657 296.399993,179.9 C300.600014,181.833343 305.299967,182.8 310.499993,182.8 C318.766701,182.8 325.299969,181.433347 330.099993,178.7 C334.900017,175.966653 338.899977,171.93336 342.099993,166.6 L343.699993,167.4 Z M456.333324,196 L407.933324,196 L407.933324,194 C410.600004,193.866666 412.833315,193.600002 414.633324,193.2 C416.433333,192.799998 417.333324,191.666676 417.333324,189.8 C417.333324,188.999996 416.433333,187.166681 414.633324,184.3 C412.833315,181.433319 410.700003,178.133352 408.233324,174.4 C405.766645,170.666648 403.166671,166.833353 400.433324,162.9 C397.699977,158.966647 395.333334,155.66668 393.333324,153 C391.19998,150.066652 389.266666,148.6 387.533324,148.6 C386.866654,148.6 386.299993,148.633333 385.833324,148.7 C385.366655,148.766667 384.86666,148.933332 384.333324,149.2 L384.333324,188.4 C384.333324,189.600006 384.666654,190.53333 385.333324,191.2 C385.999994,191.86667 386.866652,192.366665 387.933324,192.7 C388.999996,193.033335 390.199984,193.266666 391.533324,193.4 C392.866664,193.533334 394.199984,193.733332 395.533324,194 L395.533324,196 L355.733324,196 L355.733324,194 C358.800006,193.733332 361.566645,193.233337 364.033324,192.5 C366.500003,191.766663 367.733324,190.133346 367.733324,187.6 L367.733324,74.6 C367.733324,73.533328 367.666658,72.700003 367.533324,72.1 C367.39999,71.499997 366.866662,70.86667 365.933324,70.2 C364.999986,69.53333 363.566667,68.700005 361.633324,67.7 C359.699981,66.699995 357.866666,65.733338 356.133324,64.8 L356.133324,63.6 L382.733324,51.4 L384.333324,51.4 L384.333324,147 C388.20001,143.799984 392.399968,140.166687 396.933324,136.1 C401.46668,132.033313 405.666638,128.100019 409.533324,124.3 C413.40001,120.499981 416.599978,117.166681 419.133324,114.3 C421.66667,111.433319 422.933324,109.533338 422.933324,108.6 C422.933324,107.666662 422.399996,106.900003 421.333324,106.3 C420.266652,105.699997 418.933332,105.200002 417.333324,104.8 C415.733316,104.399998 414,104.066668 412.133324,103.8 C410.266648,103.533332 408.533332,103.4 406.933324,103.4 L406.933324,101.4 L455.933324,101.4 L455.933324,103.4 C455.533322,103.4 454.266668,103.499999 452.133324,103.7 C449.99998,103.900001 447.500005,104.366663 444.633324,105.1 C441.766643,105.833337 438.700007,106.86666 435.433324,108.2 C432.166641,109.53334 429.133338,111.399988 426.333324,113.8 C422.066636,117.400018 417.866678,121.099981 413.733324,124.9 C409.59997,128.700019 405.733342,132.26665 402.133324,135.6 C408.00002,144.533378 413.533298,152.899961 418.733324,160.7 C423.93335,168.500039 428.466638,174.933308 432.333324,180 C437.000014,186.133364 440.933308,190.399988 444.133324,192.8 C445.199996,193.066668 446.866646,193.333332 449.133324,193.6 C451.400002,193.866668 453.799978,194 456.333324,194 L456.333324,196 Z M505.166656,196 L458.566656,196 L458.566656,193.8 C464.70002,193.399998 468.766646,192.766671 470.766656,191.9 C472.766666,191.033329 473.766656,189.533344 473.766656,187.4 L473.766656,72.4 C473.766656,71.333328 473.666657,70.533336 473.466656,70 C473.266655,69.466664 472.699994,68.86667 471.766656,68.2 C470.56665,67.53333 468.766668,66.500007 466.366656,65.1 C463.966644,63.699993 461.966664,62.66667 460.366656,62 L460.366656,60.8 L488.966656,51.4 L490.366656,51.4 L490.366656,188.4 C490.366656,189.73334 490.666653,190.73333 491.266656,191.4 C491.866659,192.06667 492.76665,192.533332 493.966656,192.8 C495.166662,193.066668 496.69998,193.233333 498.566656,193.3 C500.433332,193.366667 502.63331,193.533332 505.166656,193.8 L505.166656,196 Z M603.799987,103.6 C602.199979,103.733334 600.633328,103.866666 599.099987,104 C597.566646,104.133334 596.099994,104.466664 594.699987,105 C593.29998,105.533336 592.066659,106.366661 590.999987,107.5 C589.933315,108.633339 589.066657,110.266656 588.399987,112.4 C587.733317,114.533344 586.666661,117.93331 585.199987,122.6 C583.733313,127.26669 581.999997,132.766635 579.999987,139.1 C577.999977,145.433365 575.799999,152.399962 573.399987,160 C570.999975,167.600038 568.566666,175.39996 566.099987,183.4 C563.633308,191.40004 561.166666,199.333294 558.699987,207.2 C556.233308,215.066706 553.866665,222.533298 551.599987,229.6 C549.999979,234.666692 547.733335,238.333322 544.799987,240.6 C541.866639,242.866678 538.866669,244 535.799987,244 C533.133307,244 530.666665,243.166675 528.399987,241.5 C526.133309,239.833325 524.999987,237.66668 524.999987,235 C524.999987,232.33332 525.799979,230.133342 527.399987,228.4 C528.999995,226.666658 531.133307,225.8 533.799987,225.8 C536.466667,225.8 538.699978,226.599992 540.499987,228.2 C542.299996,229.800008 544.133311,231.466658 545.999987,233.2 L546.399987,233.2 C547.866661,229.599982 549.166648,226.033351 550.299987,222.5 C551.433326,218.966649 552.433316,215.766681 553.299987,212.9 C554.166658,210.033319 554.866651,207.60001 555.399987,205.6 C555.933323,203.59999 556.266653,202.26667 556.399987,201.6 C556.133319,201.066664 555.399993,199.166683 554.199987,195.9 C552.999981,192.633317 551.466663,188.433359 549.599987,183.3 C547.733311,178.166641 545.599999,172.400032 543.199987,166 C540.799975,159.599968 538.366666,153.033367 535.899987,146.3 C533.433308,139.566633 530.999999,132.933366 528.599987,126.4 C526.199975,119.866634 523.999997,113.866694 521.999987,108.4 C520.799981,107.06666 519.366662,106.000004 517.699987,105.2 C516.033312,104.399996 512.933343,103.866668 508.399987,103.6 L508.399987,101.4 L551.999987,101.4 L551.999987,103.6 C549.199973,104.000002 546.766664,104.53333 544.699987,105.2 C542.63331,105.86667 541.599987,107.466654 541.599987,110 C541.599987,110.66667 541.999983,112.299987 542.799987,114.9 C543.599991,117.500013 544.666647,120.733314 545.999987,124.6 C547.333327,128.466686 548.833312,132.699977 550.499987,137.3 C552.166662,141.900023 553.833312,146.53331 555.499987,151.2 C557.166662,155.86669 558.799979,160.366645 560.399987,164.7 C561.999995,169.033355 563.399981,172.799984 564.599987,176 C564.999989,174.933328 565.733315,172.666684 566.799987,169.2 C567.866659,165.733316 569.133313,161.633357 570.599987,156.9 C572.066661,152.166643 573.599979,147.200026 575.199987,142 C576.799995,136.799974 578.266647,131.900023 579.599987,127.3 C580.933327,122.699977 582.033316,118.766683 582.899987,115.5 C583.766658,112.233317 584.199987,110.200004 584.199987,109.4 C584.199987,108.199994 583.866657,107.233337 583.199987,106.5 C582.533317,105.766663 581.633326,105.200002 580.499987,104.8 C579.366648,104.399998 578.133327,104.133334 576.799987,104 C575.466647,103.866666 574.199993,103.733334 572.999987,103.6 L572.999987,101.4 L603.799987,101.4 L603.799987,103.6 Z" id="prickly" fill="#FFFFFF"></path>
            </g>
        </g>
    </g>
</svg>