<?xml version="1.0" encoding="UTF-8"?>
<svg width="606px" height="290px" viewBox="0 0 606 290" version="1.1" xmlns="http://www.w3.org/2000/svg" xmlns:xlink="http://www.w3.org/1999/xlink">
    <!-- Generator: Sketch 52.3 (67297) - http://www.bohemiancoding.com/sketch -->
    <title>Group 2</title>
    <desc>Created with Sketch.</desc>
    <g id="Prickly-Pints" stroke="none" stroke-width="1" fill="none" fill-rule="evenodd">
        <g id="Artboard4-Copy" transform="translate(-219.000000, -237.000000)">
            <g id="Group-2" transform="translate(219.000000, 237.000000)">
                <text id="pints" font-family="OpenSans, Open Sans" font-size="50" font-weight="normal" letter-spacing="5.5999999" fill="#504F4C">
                    <tspan x="210" y="289">PINTS</tspan>
                </text>
                <text id="pints" font-family="OpenSans, Open Sans" font-size="50" font-weight="normal" letter-spacing="5.5999999" fill="#FFFFFF">
                    <tspan x="210" y="289">PINTS</tspan>
                </text>
                <path d="M201.5,270 L151.5,270" id="Line" stroke="#FFFFFF" stroke-width="3" stroke-linecap="square"></path>
                <path d="M434.5,270 L384.5,270" id="Line" stroke="#FFFFFF" stroke-width="3" stroke-linecap="square"></path>
                <g id="noun_Agave_48291" transform="translate(204.000000, 0.000000)" fill="#FFFFFF">
                    <g id="Group">
                        <polygon id="Path" points="347.522628 65.0898947 378.958287 12.5292316 377.828213 45.7755158"></polygon>
                        <polygon id="Path" points="344.298809 62.9046 334.064947 55.2743053 348.746436 0.515842105 358.065074 38.5120421"></polygon>
                        <polygon id="Path" points="330.92433 52.9775053 325.012766 48.6069158 320.22917 13.9266947 336.040734 34.5999789"></polygon>
                        <polygon id="Path" transform="translate(20.351500, 94.064520) rotate(53.000000) translate(-20.351500, -94.064520) " points="23.140878 113.589926 17.2293141 109.219336 12.4457184 74.5391151 28.2572822 95.2123993"></polygon>
                        <polygon id="Path" points="344.134511 67.7097474 301.311745 35.9964 322.976947 82.1262316"></polygon>
                        <path d="M356.155145,62.3092809 L356.163907,62.3223751 L323.218926,84.924107 C325.797133,89.1033487 333.008229,98.0183368 347.619898,98.0183368 C366.703454,98.0183368 372.577255,82.8061153 372.577255,82.8061153 L401.350447,31.3206947 L356.155145,62.3092809 Z" id="Path"></path>
                    </g>
                </g>
                <path d="M102.8,156 C102.8,163.466704 101.500013,170.399968 98.9,176.8 C96.299987,183.200032 92.600024,188.699977 87.8,193.3 C82.999976,197.900023 77.133368,201.499987 70.2,204.1 C63.266632,206.700013 55.46671,208 46.8,208 C44.399988,208 42.033345,207.933334 39.7,207.8 C37.366655,207.666666 34.933346,207.333336 32.4,206.8 C32.4,208.666676 32.433333,211.399982 32.5,215 C32.566667,218.600018 32.633333,222.39998 32.7,226.4 C32.766667,230.40002 32.8,234.333314 32.8,238.2 L32.8,247.6 C33.066668,248.800006 33.799994,249.699997 35,250.3 C36.200006,250.900003 37.633325,251.366665 39.3,251.7 C40.966675,252.033335 42.699991,252.266666 44.5,252.4 C46.300009,252.533334 47.86666,252.666666 49.2,252.8 L49.2,255 L5.68434189e-14,255 L5.68434189e-14,252.8 C1.33334,252.666666 2.933324,252.433335 4.8,252.1 C6.666676,251.766665 8.433325,251.333336 10.1,250.8 C11.766675,250.266664 13.166661,249.600004 14.3,248.8 C15.433339,247.999996 16,247.066672 16,246 L16,135.2 C16,134.133328 15.900001,133.333336 15.7,132.8 C15.499999,132.266664 14.933338,131.66667 14,131 C12.799994,130.33333 10.86668,129.366673 8.2,128.1 C5.53332,126.833327 3.400008,125.86667 1.8,125.2 L1.8,124 L31.2,112.4 L32.4,112.4 L32.4,134.8 L32.6,135.2 C34.466676,132.666654 36.533322,130.06668 38.8,127.4 C41.066678,124.73332 43.599986,122.300011 46.4,120.1 C49.200014,117.899989 52.233317,116.066674 55.5,114.6 C58.766683,113.133326 62.333314,112.4 66.2,112.4 C72.466698,112.4 77.899977,113.666654 82.5,116.2 C87.100023,118.733346 90.899985,122.066646 93.9,126.2 C96.900015,130.333354 99.133326,134.999974 100.6,140.2 C102.066674,145.400026 102.8,150.66664 102.8,156 Z M84.8,161.8 C84.8,156.733308 84.200006,152.000022 83,147.6 C81.799994,143.199978 79.966679,139.366683 77.5,136.1 C75.033321,132.833317 71.900019,130.233343 68.1,128.3 C64.299981,126.366657 59.866692,125.4 54.8,125.4 C51.333316,125.4 48.233347,126.033327 45.5,127.3 C42.766653,128.566673 40.433343,130.033325 38.5,131.7 C36.566657,133.366675 35.100005,135.066658 34.1,136.8 C33.099995,138.533342 32.6,139.799996 32.6,140.6 C32.6,143.26668 32.566667,146.099985 32.5,149.1 C32.433333,152.100015 32.4,154.733322 32.4,157 L32.4,169.8 C32.4,172.866682 32.466666,175.933318 32.6,179 C32.866668,181.800014 33.33333,184.699985 34,187.7 C34.66667,190.700015 35.799992,193.433321 37.4,195.9 C39.000008,198.366679 41.199986,200.366659 44,201.9 C46.800014,203.433341 50.399978,204.2 54.8,204.2 C58.666686,204.2 62.399982,203.133344 66,201 C69.600018,198.866656 72.799986,195.933352 75.6,192.2 C78.400014,188.466648 80.633325,184.000026 82.3,178.8 C83.966675,173.599974 84.8,167.933364 84.8,161.8 Z M189.033331,123 C189.033331,125.933348 188.166673,128.366657 186.433331,130.3 C184.699989,132.233343 182.700009,133.2 180.433331,133.2 C178.299987,133.2 176.600004,132.833337 175.333331,132.1 C174.066658,131.366663 172.966669,130.533338 172.033331,129.6 C171.099993,128.666662 170.100003,127.833337 169.033331,127.1 C167.966659,126.366663 166.500007,126 164.633331,126 C163.033323,126 161.466672,126.566661 159.933331,127.7 C158.39999,128.833339 156.966671,130.266658 155.633331,132 C154.299991,133.733342 153.100003,135.699989 152.033331,137.9 C150.966659,140.100011 150.033335,142.19999 149.233331,144.2 L149.233331,201.8 C149.633333,203.000006 150.499991,203.93333 151.833331,204.6 C153.166671,205.26667 154.666656,205.733332 156.333331,206 C158.000006,206.266668 159.733322,206.433333 161.533331,206.5 C163.33334,206.566667 164.899991,206.733332 166.233331,207 L166.233331,209 L121.433331,209 L121.433331,207 C124.500013,206.733332 127.13332,206.133338 129.333331,205.2 C131.533342,204.266662 132.633331,202.733344 132.633331,200.6 L132.633331,133 C132.633331,131.933328 132.533332,131.133336 132.333331,130.6 C132.13333,130.066664 131.566669,129.46667 130.633331,128.8 C129.433325,128.13333 128.033339,127.300005 126.433331,126.3 C124.833323,125.299995 123.233339,124.46667 121.633331,123.8 L121.633331,122.6 L147.833331,112.4 L149.033331,112.4 L148.633331,140.2 L149.033331,140.2 C149.700001,138.599992 150.766657,136.266682 152.233331,133.2 C153.700005,130.133318 155.566653,127.033349 157.833331,123.9 C160.100009,120.766651 162.833315,118.066678 166.033331,115.8 C169.233347,113.533322 172.899977,112.4 177.033331,112.4 C180.366681,112.4 183.199986,113.39999 185.533331,115.4 C187.866676,117.40001 189.033331,119.933318 189.033331,123 Z M242.466662,209 L199.466662,209 L199.466662,207 C201.06667,206.866666 202.666654,206.700001 204.266662,206.5 C205.86667,206.299999 207.299989,205.966669 208.566662,205.5 C209.833335,205.033331 210.899991,204.400004 211.766662,203.6 C212.633333,202.799996 213.066662,201.800006 213.066662,200.6 L213.066662,132 C213.066662,130.933328 212.966663,130.000004 212.766662,129.2 C212.566661,128.399996 212,127.66667 211.066662,127 C209.866656,126.199996 208.433337,125.400004 206.766662,124.6 C205.099987,123.799996 203.333338,123.06667 201.466662,122.4 L201.466662,121.2 L228.466662,112.4 L229.666662,112.4 L229.666662,201.8 C229.93333,203.13334 230.499991,204.099997 231.366662,204.7 C232.233333,205.300003 233.266656,205.733332 234.466662,206 C235.666668,206.266668 236.966655,206.433333 238.366662,206.5 C239.766669,206.566667 241.133322,206.733332 242.466662,207 L242.466662,209 Z M343.699993,180.4 C342.499987,184.40002 340.700005,188.166649 338.299993,191.7 C335.899981,195.233351 332.966677,198.366653 329.499993,201.1 C326.033309,203.833347 322.133348,205.933326 317.799993,207.4 C313.466638,208.866674 308.766685,209.6 303.699993,209.6 C297.299961,209.6 291.366687,208.366679 285.899993,205.9 C280.433299,203.433321 275.766679,199.966689 271.899993,195.5 C268.033307,191.033311 265.000004,185.80003 262.799993,179.8 C260.599982,173.79997 259.499993,167.400034 259.499993,160.6 C259.499993,154.199968 260.633315,148.100029 262.899993,142.3 C265.166671,136.499971 268.299973,131.400022 272.299993,127 C276.300013,122.599978 281.066632,119.06668 286.599993,116.4 C292.133354,113.73332 298.166627,112.4 304.699993,112.4 C309.100015,112.4 313.433305,112.933328 317.699993,114 C321.966681,115.066672 325.766643,116.59999 329.099993,118.6 C332.433343,120.60001 335.133316,123.066652 337.199993,126 C339.26667,128.933348 340.299993,132.333314 340.299993,136.2 C340.299993,139.000014 339.26667,141.433323 337.199993,143.5 C335.133316,145.566677 332.700007,146.6 329.899993,146.6 C327.633315,146.6 325.600002,145.93334 323.799993,144.6 C321.999984,143.26666 320.833329,141.60001 320.299993,139.6 C320.966663,137.733324 321.299993,135.46668 321.299993,132.8 C321.299993,127.866642 320.000006,123.766683 317.399993,120.5 C314.79998,117.233317 310.700021,115.6 305.099993,115.6 C300.966639,115.6 297.166677,116.666656 293.699993,118.8 C290.233309,120.933344 287.233339,123.799982 284.699993,127.4 C282.166647,131.000018 280.166667,135.199976 278.699993,140 C277.233319,144.800024 276.499993,149.933306 276.499993,155.4 C276.499993,161.40003 277.299985,166.899975 278.899993,171.9 C280.500001,176.900025 282.766645,181.166649 285.699993,184.7 C288.633341,188.233351 292.199972,190.966657 296.399993,192.9 C300.600014,194.833343 305.299967,195.8 310.499993,195.8 C318.766701,195.8 325.299969,194.433347 330.099993,191.7 C334.900017,188.966653 338.899977,184.93336 342.099993,179.6 L343.699993,180.4 Z M456.333324,209 L407.933324,209 L407.933324,207 C410.600004,206.866666 412.833315,206.600002 414.633324,206.2 C416.433333,205.799998 417.333324,204.666676 417.333324,202.8 C417.333324,201.999996 416.433333,200.166681 414.633324,197.3 C412.833315,194.433319 410.700003,191.133352 408.233324,187.4 C405.766645,183.666648 403.166671,179.833353 400.433324,175.9 C397.699977,171.966647 395.333334,168.66668 393.333324,166 C391.19998,163.066652 389.266666,161.6 387.533324,161.6 C386.866654,161.6 386.299993,161.633333 385.833324,161.7 C385.366655,161.766667 384.86666,161.933332 384.333324,162.2 L384.333324,201.4 C384.333324,202.600006 384.666654,203.53333 385.333324,204.2 C385.999994,204.86667 386.866652,205.366665 387.933324,205.7 C388.999996,206.033335 390.199984,206.266666 391.533324,206.4 C392.866664,206.533334 394.199984,206.733332 395.533324,207 L395.533324,209 L355.733324,209 L355.733324,207 C358.800006,206.733332 361.566645,206.233337 364.033324,205.5 C366.500003,204.766663 367.733324,203.133346 367.733324,200.6 L367.733324,87.6 C367.733324,86.533328 367.666658,85.700003 367.533324,85.1 C367.39999,84.499997 366.866662,83.86667 365.933324,83.2 C364.999986,82.53333 363.566667,81.700005 361.633324,80.7 C359.699981,79.699995 357.866666,78.733338 356.133324,77.8 L356.133324,76.6 L382.733324,64.4 L384.333324,64.4 L384.333324,160 C388.20001,156.799984 392.399968,153.166687 396.933324,149.1 C401.46668,145.033313 405.666638,141.100019 409.533324,137.3 C413.40001,133.499981 416.599978,130.166681 419.133324,127.3 C421.66667,124.433319 422.933324,122.533338 422.933324,121.6 C422.933324,120.666662 422.399996,119.900003 421.333324,119.3 C420.266652,118.699997 418.933332,118.200002 417.333324,117.8 C415.733316,117.399998 414,117.066668 412.133324,116.8 C410.266648,116.533332 408.533332,116.4 406.933324,116.4 L406.933324,114.4 L455.933324,114.4 L455.933324,116.4 C455.533322,116.4 454.266668,116.499999 452.133324,116.7 C449.99998,116.900001 447.500005,117.366663 444.633324,118.1 C441.766643,118.833337 438.700007,119.86666 435.433324,121.2 C432.166641,122.53334 429.133338,124.399988 426.333324,126.8 C422.066636,130.400018 417.866678,134.099981 413.733324,137.9 C409.59997,141.700019 405.733342,145.26665 402.133324,148.6 C408.00002,157.533378 413.533298,165.899961 418.733324,173.7 C423.93335,181.500039 428.466638,187.933308 432.333324,193 C437.000014,199.133364 440.933308,203.399988 444.133324,205.8 C445.199996,206.066668 446.866646,206.333332 449.133324,206.6 C451.400002,206.866668 453.799978,207 456.333324,207 L456.333324,209 Z M505.166656,209 L458.566656,209 L458.566656,206.8 C464.70002,206.399998 468.766646,205.766671 470.766656,204.9 C472.766666,204.033329 473.766656,202.533344 473.766656,200.4 L473.766656,85.4 C473.766656,84.333328 473.666657,83.533336 473.466656,83 C473.266655,82.466664 472.699994,81.86667 471.766656,81.2 C470.56665,80.53333 468.766668,79.500007 466.366656,78.1 C463.966644,76.699993 461.966664,75.66667 460.366656,75 L460.366656,73.8 L488.966656,64.4 L490.366656,64.4 L490.366656,201.4 C490.366656,202.73334 490.666653,203.73333 491.266656,204.4 C491.866659,205.06667 492.76665,205.533332 493.966656,205.8 C495.166662,206.066668 496.69998,206.233333 498.566656,206.3 C500.433332,206.366667 502.63331,206.533332 505.166656,206.8 L505.166656,209 Z M603.799987,116.6 C602.199979,116.733334 600.633328,116.866666 599.099987,117 C597.566646,117.133334 596.099994,117.466664 594.699987,118 C593.29998,118.533336 592.066659,119.366661 590.999987,120.5 C589.933315,121.633339 589.066657,123.266656 588.399987,125.4 C587.733317,127.533344 586.666661,130.93331 585.199987,135.6 C583.733313,140.26669 581.999997,145.766635 579.999987,152.1 C577.999977,158.433365 575.799999,165.399962 573.399987,173 C570.999975,180.600038 568.566666,188.39996 566.099987,196.4 C563.633308,204.40004 561.166666,212.333294 558.699987,220.2 C556.233308,228.066706 553.866665,235.533298 551.599987,242.6 C549.999979,247.666692 547.733335,251.333322 544.799987,253.6 C541.866639,255.866678 538.866669,257 535.799987,257 C533.133307,257 530.666665,256.166675 528.399987,254.5 C526.133309,252.833325 524.999987,250.66668 524.999987,248 C524.999987,245.33332 525.799979,243.133342 527.399987,241.4 C528.999995,239.666658 531.133307,238.8 533.799987,238.8 C536.466667,238.8 538.699978,239.599992 540.499987,241.2 C542.299996,242.800008 544.133311,244.466658 545.999987,246.2 L546.399987,246.2 C547.866661,242.599982 549.166648,239.033351 550.299987,235.5 C551.433326,231.966649 552.433316,228.766681 553.299987,225.9 C554.166658,223.033319 554.866651,220.60001 555.399987,218.6 C555.933323,216.59999 556.266653,215.26667 556.399987,214.6 C556.133319,214.066664 555.399993,212.166683 554.199987,208.9 C552.999981,205.633317 551.466663,201.433359 549.599987,196.3 C547.733311,191.166641 545.599999,185.400032 543.199987,179 C540.799975,172.599968 538.366666,166.033367 535.899987,159.3 C533.433308,152.566633 530.999999,145.933366 528.599987,139.4 C526.199975,132.866634 523.999997,126.866694 521.999987,121.4 C520.799981,120.06666 519.366662,119.000004 517.699987,118.2 C516.033312,117.399996 512.933343,116.866668 508.399987,116.6 L508.399987,114.4 L551.999987,114.4 L551.999987,116.6 C549.199973,117.000002 546.766664,117.53333 544.699987,118.2 C542.63331,118.86667 541.599987,120.466654 541.599987,123 C541.599987,123.66667 541.999983,125.299987 542.799987,127.9 C543.599991,130.500013 544.666647,133.733314 545.999987,137.6 C547.333327,141.466686 548.833312,145.699977 550.499987,150.3 C552.166662,154.900023 553.833312,159.53331 555.499987,164.2 C557.166662,168.86669 558.799979,173.366645 560.399987,177.7 C561.999995,182.033355 563.399981,185.799984 564.599987,189 C564.999989,187.933328 565.733315,185.666684 566.799987,182.2 C567.866659,178.733316 569.133313,174.633357 570.599987,169.9 C572.066661,165.166643 573.599979,160.200026 575.199987,155 C576.799995,149.799974 578.266647,144.900023 579.599987,140.3 C580.933327,135.699977 582.033316,131.766683 582.899987,128.5 C583.766658,125.233317 584.199987,123.200004 584.199987,122.4 C584.199987,121.199994 583.866657,120.233337 583.199987,119.5 C582.533317,118.766663 581.633326,118.200002 580.499987,117.8 C579.366648,117.399998 578.133327,117.133334 576.799987,117 C575.466647,116.866666 574.199993,116.733334 572.999987,116.6 L572.999987,114.4 L603.799987,114.4 L603.799987,116.6 Z" id="prickly" fill="#FFFFFF"></path>
            </g>
        </g>
    </g>
</svg>